<?xml version="1.0" standalone="no"?>

<!DOCTYPE svg PUBLIC "-//W3C//DTD SVG 20010904//EN"

 "http://www.w3.org/TR/2001/REC-SVG-20010904/DTD/svg10.dtd">

<svg version="1.0" xmlns="http://www.w3.org/2000/svg"

 width="540.000000pt" height="665.000000pt" viewBox="0 0 540.000000 665.000000"

 preserveAspectRatio="xMidYMid meet">

<path fill="#3b2282" stroke="none" d="
M507 661

C505 659 499 649 492 639

C486 628 462 594 440 563

C358 447 351 436 313 374

C299 350 287 330 286 329

L285 327

L277 337

C272 343 269 348 269 348

C269 349 268 351 266 354

C264 356 260 364 255 372

C247 387 240 398 222 423

C204 447 200 453 195 463

C192 468 186 479 181 487

C159 521 148 542 139 564

C137 570 134 575 133 576

C133 576 131 578 129 581

L127 586

L124 586

L122 586

L121 583

C120 576 131 539 143 501

C151 478 153 471 159 461

C184 415 217 366 251 323

L262 310

L259 310

C252 308 212 305 166 301

C133 299 118 298 65 293

C48 292 14 288 4 286

L0 286

L0 282

L0 278

L3 278

C18 282 50 280 91 275

C109 272 127 272 163 273

C186 274 187 274 200 272

C214 268 221 269 238 272

C243 273 248 274 249 274

L250 274

L238 257

C222 235 213 219 194 185

C186 170 177 153 173 148

C169 142 156 118 144 94

C131 69 117 42 112 33

C106 24 102 15 103 15

C103 14 102 11 101 8

C99 5 98 2 98 2

L98 0

L102 0

C106 0 103 -4 139 44

C153 64 168 82 171 86

C173 89 177 94 180 97

C187 107 234 184 271 247

C281 264 289 278 289 278

L290 278

L302 264

C323 242 343 220 399 163

C459 101 484 74 503 54

C512 45 517 39 519 39

L521 39

L522 41

C523 43 523 44 506 62

C499 69 490 79 486 84

C472 101 413 174 394 199

C369 229 357 243 340 263

C318 287 313 293 313 294

L313 295

L316 296

C318 296 321 298 322 299

C324 301 326 302 326 302

L327 302

L328 304

C329 308 326 309 317 309

L308 309

L308 310

C309 311 396 463 406 482

C424 512 456 565 487 615

C503 641 516 663 517 664

L517 665

L513 665

C509 665 509 665 507 661

Z

"/>

<path fill="#00ff01" stroke="none" d="
M221 305

L222 305

L223 305

L223 306

L221 306

L220 306

L221 305

Z

M196 303

L197 303

L198 303

L198 304

L196 304

L195 304

L196 303

Z

M167 301

L168 301

L169 301

L169 302

L167 302

L166 302

L167 301

Z

M152 300

L153 300

L154 300

L154 301

L152 301

L151 301

L152 300

Z

M138 299

L139 299

L140 299

L140 300

L138 300

L137 300

L138 299

Z

M316 289

C316 288 317 288 318 287

L320 286

L318 287

C317 288 317 289 316 289

L316 289

L316 289

Z

M18 280

C18 280 20 280 20 280

L22 281

L19 281

L17 281

L18 280

Z

M28 280

C29 280 31 280 32 280

L35 281

L30 281

L26 281

L28 280

Z

M323 281

C323 280 324 280 325 279

L327 278

L325 279

C324 280 324 281 323 281

L323 281

L323 281

Z

M70 277

L71 277

L72 277

L72 278

L70 278

L69 278

L70 277

Z

M157 273

C158 273 160 273 160 273

L162 274

L159 274

L156 274

L157 273

Z

M113 272

L114 272

L115 272

L115 273

L113 273

L112 273

L113 272

Z

M136 272

C136 272 138 272 138 272

L140 273

L137 273

L135 273

L136 272

Z

M333 270

C333 269 335 268 335 268

L335 268

L334 270

C333 271 331 272 331 272

L331 272

L333 270

Z

M298 269

C298 268 300 267 300 267

L300 267

L299 269

C298 270 296 271 296 271

L296 271

L298 269

Z

M219 269

L220 269

L221 269

L221 270

L219 270

L218 270

L219 269

Z

M307 259

C307 258 309 257 309 257

L309 257

L308 259

C307 260 305 261 305 261

L305 261

L307 259

Z

M343 259

C343 258 345 257 345 257

L345 257

L344 259

C343 260 341 261 341 261

L341 261

L343 259

Z

M350 251

C350 250 351 250 352 249

L354 248

L352 249

C351 250 351 251 350 251

L350 251

L350 251

Z

M318 247

C319 245 321 244 321 244

L321 244

L319 247

C318 248 316 249 316 249

L316 249

L318 247

Z

M333 231

C335 229 337 227 337 227

L337 227

L334 231

C332 232 330 234 330 234

L330 234

L333 231

Z

M355 208

C359 204 362 201 362 201

L362 201

L356 208

C352 211 349 214 349 214

L349 214

L355 208

Z

M393 169

C397 165 401 161 401 161

L401 161

L394 169

C389 173 385 177 385 177

L385 177

L393 169

Z

M430 131

C434 127 438 123 438 123

L438 123

L431 131

C426 135 422 139 422 139

L422 139

L430 131

Z

M459 101

C462 97 465 95 465 95

L465 95

L460 101

C457 104 454 106 454 106

L454 106

L459 101

Z

M174 90

L173 89

L174 90

C175 91 176 91 176 92

L176 92

L176 92

C175 92 175 91 174 90

Z

M486 84

C486 83 487 83 488 82

L490 81

L488 82

C487 83 487 84 486 84

L486 84

L486 84

Z

M479 80

C481 78 483 76 483 76

L483 76

L480 80

C478 81 476 83 476 83

L476 83

L479 80

Z

M492 77

C492 76 493 76 494 75

L496 74

L494 75

C493 76 493 77 492 77

L492 77

L492 77

Z

M501 67

C501 67 502 65 504 63

L508 61

L505 64

C503 66 501 67 501 67

L501 67

L501 67

Z

M494 64

C495 62 497 61 497 61

L497 61

L495 64

C494 65 492 66 492 66

L492 66

L494 64

Z

M503 54

C503 54 504 52 506 50

L510 48

L507 51

C505 53 503 54 503 54

L503 54

L503 54

Z

M516 51

C517 49 519 48 519 48

L519 48

L517 51

C516 52 514 53 514 53

L514 53

L516 51

Z

M514 42

C514 41 515 41 516 40

L518 39

L516 40

C515 41 515 42 514 42

L514 42

L514 42

Z

"/>

<path fill="#49308f" stroke="none" d="
M221 305

L222 305

L223 305

L223 306

L221 306

L220 306

L221 305

Z

M196 303

L197 303

L198 303

L198 304

L196 304

L195 304

L196 303

Z

M167 301

L168 301

L169 301

L169 302

L167 302

L166 302

L167 301

Z

M152 300

L153 300

L154 300

L154 301

L152 301

L151 301

L152 300

Z

M138 299

L139 299

L140 299

L140 300

L138 300

L137 300

L138 299

Z

M316 289

C316 288 317 288 318 287

L320 286

L318 287

C317 288 317 289 316 289

L316 289

L316 289

Z

M18 280

C18 280 20 280 20 280

L22 281

L19 281

L17 281

L18 280

Z

M28 280

C29 280 31 280 32 280

L35 281

L30 281

L26 281

L28 280

Z

M323 281

C323 280 324 280 325 279

L327 278

L325 279

C324 280 324 281 323 281

L323 281

L323 281

Z

M70 277

L71 277

L72 277

L72 278

L70 278

L69 278

L70 277

Z

M157 273

C158 273 160 273 160 273

L162 274

L159 274

L156 274

L157 273

Z

M113 272

L114 272

L115 272

L115 273

L113 273

L112 273

L113 272

Z

M136 272

C136 272 138 272 138 272

L140 273

L137 273

L135 273

L136 272

Z

M333 270

C333 269 335 268 335 268

L335 268

L334 270

C333 271 331 272 331 272

L331 272

L333 270

Z

M298 269

C298 268 300 267 300 267

L300 267

L299 269

C298 270 296 271 296 271

L296 271

L298 269

Z

M219 269

L220 269

L221 269

L221 270

L219 270

L218 270

L219 269

Z

M307 259

C307 258 309 257 309 257

L309 257

L308 259

C307 260 305 261 305 261

L305 261

L307 259

Z

M343 259

C343 258 345 257 345 257

L345 257

L344 259

C343 260 341 261 341 261

L341 261

L343 259

Z

M350 251

C350 250 351 250 352 249

L354 248

L352 249

C351 250 351 251 350 251

L350 251

L350 251

Z

M318 247

C319 245 321 244 321 244

L321 244

L319 247

C318 248 316 249 316 249

L316 249

L318 247

Z

M333 231

C335 229 337 227 337 227

L337 227

L334 231

C332 232 330 234 330 234

L330 234

L333 231

Z

M355 208

C359 204 362 201 362 201

L362 201

L356 208

C352 211 349 214 349 214

L349 214

L355 208

Z

M393 169

C397 165 401 161 401 161

L401 161

L394 169

C389 173 385 177 385 177

L385 177

L393 169

Z

M430 131

C434 127 438 123 438 123

L438 123

L431 131

C426 135 422 139 422 139

L422 139

L430 131

Z

M459 101

C462 97 465 95 465 95

L465 95

L460 101

C457 104 454 106 454 106

L454 106

L459 101

Z

M174 90

L173 89

L174 90

C175 91 176 91 176 92

L176 92

L176 92

C175 92 175 91 174 90

Z

M486 84

C486 83 487 83 488 82

L490 81

L488 82

C487 83 487 84 486 84

L486 84

L486 84

Z

M479 80

C481 78 483 76 483 76

L483 76

L480 80

C478 81 476 83 476 83

L476 83

L479 80

Z

M492 77

C492 76 493 76 494 75

L496 74

L494 75

C493 76 493 77 492 77

L492 77

L492 77

Z

M501 67

C501 67 502 65 504 63

L508 61

L505 64

C503 66 501 67 501 67

L501 67

L501 67

Z

M494 64

C495 62 497 61 497 61

L497 61

L495 64

C494 65 492 66 492 66

L492 66

L494 64

Z

M503 54

C503 54 504 52 506 50

L510 48

L507 51

C505 53 503 54 503 54

L503 54

L503 54

Z

M516 51

C517 49 519 48 519 48

L519 48

L517 51

C516 52 514 53 514 53

L514 53

L516 51

Z

M514 42

C514 41 515 41 516 40

L518 39

L516 40

C515 41 515 42 514 42

L514 42

L514 42

Z

"/>

<path fill="#5940a0" stroke="none" d="
M19 280

L20 280

L21 280

L21 281

L19 281

L18 281

L19 280

Z

M27 280

C28 280 30 280 31 280

L33 281

L29 281

L26 281

L27 280

Z

M159 273

L160 273

L161 273

L161 274

L159 274

L158 274

L159 273

Z

M137 272

L138 272

L139 272

L139 273

L137 273

L136 273

L137 272

Z

M332 271

C332 270 333 270 334 269

L336 268

L334 269

C333 270 333 271 332 271

L332 271

L332 271

Z

M305 261

C305 260 306 260 307 259

L309 258

L307 259

C306 260 306 261 305 261

L305 261

L305 261

Z

M316 249

C316 248 317 248 318 247

L320 246

L318 247

C317 248 317 249 316 249

L316 249

L316 249

Z

M330 234

C330 233 331 233 332 232

L334 231

L332 232

C331 233 331 234 330 234

L330 234

L330 234

Z

M349 214

C349 214 350 212 352 210

L356 208

L353 211

C351 213 349 214 349 214

L349 214

L349 214

Z

M389 173

C391 170 394 168 394 168

L394 168

L394 168

C394 168 392 171 389 173

L385 178

L389 173

Z

M427 134

C429 131 432 129 432 129

L432 129

L428 134

C425 137 422 139 422 139

L422 139

L427 134

Z

M454 106

C454 106 455 104 457 102

L461 100

L458 103

C456 105 454 106 454 106

L454 106

L454 106

Z

M478 81

C478 80 480 79 480 79

L480 79

L479 81

C478 82 476 83 476 83

L476 83

L478 81

Z

M492 66

C492 65 493 65 494 64

L496 63

L494 64

C493 65 493 66 492 66

L492 66

L492 66

Z

M504 64

C504 63 505 63 506 62

L508 61

L506 62

C505 63 505 64 504 64

L504 64

L504 64

Z

M503 54

C503 53 504 53 505 52

L507 51

L505 52

C504 53 504 54 503 54

L503 54

L503 54

Z

M516 51

C516 50 517 50 518 49

L520 48

L518 49

C517 50 517 51 516 51

L516 51

L516 51

Z

M514 42

C514 41 515 41 516 40

L518 39

L516 40

C515 41 515 42 514 42

L514 42

L514 42

Z

"/>

<path fill="#6950b0" stroke="none" d="
M27 280

C27 280 29 280 29 280

L31 281

L28 281

L26 281

L27 280

Z

M349 214

C349 213 350 213 351 212

L353 211

L351 212

C350 213 350 214 349 214

L349 214

L349 214

Z

M387 175

C387 174 389 173 389 173

L389 173

L388 175

C387 176 385 177 385 177

L385 177

L387 175

Z

M424 137

C425 135 427 134 427 134

L427 134

L425 137

C424 138 422 139 422 139

L422 139

L424 137

Z

M454 106

C454 105 455 105 456 104

L458 103

L456 104

C455 105 455 106 454 106

L454 106

L454 106

Z

"/>

<path fill="#ffff00" stroke="none" d="
"/>

<path fill="#fdfdfd" stroke="none" d="
"/>

<path fill="#ffffff" stroke="none" d="
"/>

</svg>

