<?xml version="1.0" standalone="no"?>
<!DOCTYPE svg PUBLIC "-//W3C//DTD SVG 20010904//EN"
 "http://www.w3.org/TR/2001/REC-SVG-20010904/DTD/svg10.dtd">
<svg version="1.0" xmlns="http://www.w3.org/2000/svg"
 width="540.000000pt" height="665.000000pt" viewBox="0 0 540.000000 665.000000"
 preserveAspectRatio="xMidYMid meet">
<metadata>
Created by potrace 1.16, written by Peter Selinger 2001-2019
</metadata>
<g transform="translate(0.000000,665.000000) scale(0.100000,-0.100000)"
fill="#000000" stroke="none">
<path d="M970 6635 c0 -9 11 -38 25 -65 14 -27 25 -62 25 -78 0 -15 4 -32 9
-37 24 -26 205 -362 404 -750 121 -236 250 -475 286 -530 37 -55 134 -224 216
-375 193 -358 277 -498 423 -705 66 -93 119 -171 118 -172 -1 -2 -49 7 -107
18 -140 27 -284 29 -369 4 -71 -21 -222 -24 -685 -15 -199 4 -251 2 -385 -17
-351 -50 -681 -70 -827 -51 l-103 14 0 -47 0 -46 157 -21 c330 -45 813 -87
1738 -152 269 -19 696 -58 703 -65 2 -2 -45 -63 -104 -137 -339 -421 -630
-853 -878 -1301 -102 -184 -104 -190 -218 -537 -89 -272 -164 -548 -189 -687
-14 -83 -5 -106 40 -101 19 2 32 15 50 48 14 25 32 51 42 57 9 7 34 57 55 110
87 227 172 385 402 747 79 126 153 250 165 275 25 58 99 168 280 418 197 272
233 326 321 492 43 80 90 163 107 185 16 22 29 44 29 48 0 16 142 198 151 193
4 -3 133 -213 285 -468 366 -610 454 -741 1255 -1867 443 -623 413 -580 559
-814 l126 -201 53 -3 c45 -3 53 -1 48 12 -4 9 -143 238 -311 510 -491 795
-729 1197 -1266 2139 l-507 887 88 0 c77 0 90 2 99 19 5 11 10 24 10 30 0 20
-80 90 -110 96 -17 4 -32 10 -35 15 -6 9 50 75 280 330 167 184 282 323 530
635 197 247 795 985 927 1141 37 45 131 149 208 233 113 122 140 156 140 180
0 29 -14 41 -48 41 -10 0 -86 -75 -171 -167 -210 -229 -464 -494 -1066 -1113
-584 -600 -668 -688 -882 -924 -86 -94 -160 -172 -164 -174 -4 -2 -13 7 -20
20 -29 55 -458 779 -622 1048 -307 505 -433 703 -497 780 -47 58 -613 801
-679 891 -18 25 -111 28 -111 4z"/>
</g>
</svg>
