<?xml version="1.0" standalone="no"?>

<!DOCTYPE svg PUBLIC "-//W3C//DTD SVG 20010904//EN"

 "http://www.w3.org/TR/2001/REC-SVG-20010904/DTD/svg10.dtd">

<svg version="1.0" xmlns="http://www.w3.org/2000/svg"

 width="800.000000pt" height="800.000000pt" viewBox="0 0 800.000000 800.000000"

 preserveAspectRatio="xMidYMid meet">

<path fill="#2f4699" stroke="none" d="
M0 400

L0 0

L400 0

L800 0

L800 400

L800 800

L400 800

L0 800

L0 400

Z

"/>

<path fill="#5a6eaf" stroke="none" d="
M0 400

L0 0

L400 0

L800 0

L800 400

L800 800

L400 800

L0 800

L0 400

Z

M235 693

C238 693 242 691 245 691

C251 689 271 680 277 676

C290 668 295 664 296 663

C297 663 302 659 307 655

C316 647 343 621 352 610

C355 606 362 598 367 592

C372 586 377 579 379 577

C381 575 384 571 386 568

C388 565 391 561 392 559

C398 552 409 535 423 513

C433 498 435 496 437 491

C438 489 440 487 440 487

C440 487 441 485 442 484

C443 482 445 479 447 477

C448 474 450 471 450 469

C451 467 452 466 453 466

L454 466

L455 463

C456 462 457 459 459 457

C460 454 462 451 462 449

C463 448 464 446 465 446

C466 445 467 443 468 442

C468 440 470 437 471 435

C473 432 475 429 476 428

C476 426 478 423 480 421

C481 418 483 415 484 413

C485 411 487 408 488 406

C490 403 492 400 492 399

C493 397 495 394 497 392

C498 389 500 386 501 385

C501 383 503 380 505 378

C506 375 508 372 508 370

C509 369 510 367 511 367

C512 366 513 364 514 363

C514 361 516 358 517 356

C519 353 521 350 521 349

C522 347 524 344 525 342

C527 339 529 336 530 334

C531 332 533 330 534 329

C536 328 546 328 566 328

C596 328 596 328 598 324

C602 319 604 315 604 315

L604 314

L576 314

C553 314 547 314 546 313

L544 311

L546 307

C547 304 549 300 551 298

C553 296 555 292 555 291

C556 289 559 284 562 281

C564 277 567 272 567 271

C572 261 603 217 611 208

C625 193 633 185 643 179

C655 171 655 171 657 170

C658 170 661 169 664 167

C666 166 669 165 670 165

C671 165 673 164 674 163

C676 163 680 161 683 161

C687 160 691 159 694 158

C703 156 719 154 737 153

C756 152 757 152 759 149

C760 148 763 145 765 143

C767 141 768 139 768 138

L767 137

L643 137

C505 137 513 137 511 144

C510 151 506 150 578 151

L642 151

L643 152

C643 153 643 155 642 156

L641 159

L640 159

C639 159 634 163 628 168

C618 176 618 176 603 176

C588 176 588 176 586 179

C584 181 583 183 583 185

C583 188 585 190 590 190

C594 190 597 192 597 193

C597 195 591 202 581 213

C576 218 576 218 507 218

C465 218 436 218 435 219

C429 221 426 227 428 231

C428 232 445 232 491 232

C537 232 555 233 556 233

L559 235

L558 238

C558 242 554 248 540 269

C538 271 532 280 526 289

C520 298 514 307 512 310

C509 314 509 314 455 314

C402 314 402 314 398 316

C395 319 393 322 394 326

L395 328

L445 328

C489 328 495 328 496 330

L498 331

L496 336

C495 339 493 342 493 343

C492 344 491 346 490 347

C489 348 488 351 486 354

C485 356 483 359 482 361

C482 362 479 366 478 369

C476 372 474 375 474 376

C474 376 473 377 473 378

C472 379 470 382 467 386

C465 390 463 395 461 398

C460 400 458 403 457 406

C454 412 453 413 441 413

C430 414 430 414 428 417

C425 420 424 424 426 426

C427 426 430 427 432 427

C435 427 438 427 439 428

L442 429

L442 430

C442 432 440 437 436 443

C435 445 433 448 432 451

C431 453 429 456 428 458

C424 465 424 465 400 465

C380 465 378 465 374 467

C371 469 370 470 369 473

C368 479 369 479 390 479

C404 479 410 479 411 480

C413 482 412 486 410 490

C408 492 407 495 406 496

C406 497 404 500 403 503

C401 505 400 508 399 509

C398 510 396 513 394 516

C391 520 388 524 384 531

C383 533 382 535 382 535

C382 536 381 538 380 539

C379 540 378 542 378 542

C378 543 373 550 364 561

C362 564 359 567 358 567

C356 568 326 568 290 568

C225 568 225 568 222 571

C220 572 219 574 219 576

C219 582 215 581 282 582

C337 582 344 582 345 584

C347 586 345 588 329 606

C317 619 301 635 289 646

C284 651 278 656 276 658

C274 659 271 662 268 664

C266 666 262 669 259 672

C244 683 225 692 216 692

C209 692 201 686 201 680

C201 678 204 669 206 666

C206 664 207 662 207 661

L207 659

L201 659

C192 660 184 667 179 677

C177 683 177 685 181 691

C185 694 185 694 193 695

C205 696 229 695 235 693

Z

M167 580

C171 577 172 573 171 570

C170 568 168 568 101 568

C33 569 33 569 30 572

C28 576 28 579 31 581

C32 582 62 582 99 582

C163 582 165 581 167 580

Z

M195 528

C198 525 199 524 199 521

L199 518

L197 517

C195 517 186 517 175 517

C153 518 152 518 151 524

C151 527 151 528 153 529

C154 531 156 531 173 531

C192 531 192 531 195 528

Z

M618 482

C622 480 629 475 633 472

C641 466 671 437 677 429

C679 426 682 422 683 421

C684 419 686 417 687 416

C688 415 691 411 694 408

C696 405 698 402 698 401

L698 400

L695 404

C693 406 690 408 689 409

C688 411 685 414 682 418

C665 438 640 464 632 468

C630 469 628 470 628 471

C627 472 625 472 622 472

C616 472 614 470 614 460

C614 454 614 451 616 448

C617 446 618 443 618 442

C618 441 619 439 620 438

C621 437 622 434 623 433

C623 432 625 429 626 428

C627 426 629 423 629 422

C630 421 632 417 634 414

C636 411 639 407 640 405

C641 403 644 398 647 394

C649 391 651 388 651 387

C651 387 653 384 656 380

C658 376 660 373 660 372

C660 372 661 370 662 370

C663 369 664 367 664 367

C664 366 665 365 666 363

C671 355 677 346 677 346

C677 345 681 338 687 330

C688 328 689 327 689 326

C689 326 690 325 691 324

C691 323 693 321 694 320

C694 318 696 314 698 312

C700 308 701 305 701 302

L701 297

L700 297

C700 297 697 298 695 299

C692 300 689 301 688 301

C686 301 682 302 679 303

C676 304 671 305 669 306

C663 306 662 307 662 312

C662 314 661 317 660 320

C654 333 652 336 649 341

C647 344 645 347 645 347

C645 348 644 349 643 350

C642 351 641 353 641 354

C635 364 631 370 628 374

C626 377 624 380 624 381

C623 383 622 386 620 388

C618 390 617 393 616 395

C615 396 614 399 612 401

C610 403 607 408 605 412

C603 415 601 418 601 418

L600 418

L600 419

C600 420 598 424 596 427

C593 431 591 435 591 435

C591 435 590 437 589 438

C588 439 587 442 587 443

C586 444 585 446 584 447

C584 448 583 450 583 452

C582 454 581 456 580 458

C579 459 579 463 579 468

C579 476 579 477 583 481

C588 487 589 487 602 486

C609 486 611 485 618 482

Z

M251 477

C254 475 255 471 254 467

C253 465 253 465 221 465

C192 465 188 465 186 467

C182 469 181 470 181 474

L181 478

L182 478

C183 479 198 479 216 479

C245 479 249 478 251 477

Z

M313 424

C316 421 317 417 316 415

C315 414 308 414 264 414

C212 414 212 414 210 416

C206 419 206 421 207 424

L208 427

L259 427

C310 427 310 427 313 424

Z

M701 397

C702 397 702 396 702 395

L702 395

L701 396

C700 397 699 398 699 398

L699 399

L700 399

L701 399

L701 397

Z

M705 392

L706 390

L705 391

C704 392 703 393 703 393

L703 394

L703 394

C704 394 704 393 705 392

Z

M215 376

C219 373 220 370 219 369

C218 365 215 364 186 364

C159 364 159 364 156 367

C152 370 151 374 153 377

C154 378 162 378 184 378

C210 378 214 378 215 376

Z

M240 325

C242 323 243 319 241 316

C240 314 239 314 215 314

C190 314 190 314 186 318

C183 320 182 322 182 324

L182 327

L184 327

C185 328 197 328 212 328

C238 328 238 328 240 325

Z

M708 257

C712 256 718 253 724 247

C729 242 739 230 739 229

C739 228 740 226 741 224

C742 221 743 218 743 213

L743 206

L739 204

C736 203 735 203 729 204

C715 207 693 228 691 241

C689 250 691 256 696 258

C700 259 700 259 708 257

Z

M292 229

C296 225 296 223 293 221

C291 219 287 219 272 219

C254 219 252 219 249 221

C247 222 245 224 245 224

C244 226 244 230 245 231

C245 232 255 232 268 232

C290 232 290 232 292 229

Z

M471 150

C478 148 482 140 478 138

C475 137 408 137 403 138

C400 139 399 140 398 142

C398 147 399 150 401 150

C405 151 467 151 471 150

Z

"/>

<path fill="#07a6e7" stroke="none" d="
M0 400

L0 0

L400 0

L800 0

L800 400

L800 800

L400 800

L0 800

L0 400

Z

M221 698

C222 697 226 696 231 696

C235 695 240 694 241 693

C242 693 245 692 247 692

C255 690 289 672 297 664

C298 664 303 660 308 656

C318 647 346 620 356 608

C372 589 384 574 392 561

C394 559 397 555 399 552

C406 542 435 499 435 498

C435 497 440 490 445 482

C446 480 447 479 447 478

C447 478 449 475 451 471

C457 462 463 452 468 443

C469 441 471 438 472 437

C473 434 484 416 489 408

C490 405 492 402 493 400

C495 398 500 388 506 378

C512 368 517 358 519 356

C520 354 522 351 522 350

C528 339 533 332 535 331

C536 330 548 330 566 330

C596 330 596 330 598 326

C604 318 606 315 605 314

C605 313 593 313 577 313

C561 313 549 313 548 312

L546 311

L547 308

C548 306 549 304 550 303

C550 302 552 300 552 299

C553 297 555 294 556 293

C557 291 560 286 562 283

C588 238 610 208 631 190

C651 172 676 161 707 157

C713 157 719 156 720 155

C721 155 730 154 739 154

C757 153 757 153 760 150

C761 149 764 146 765 144

C767 142 769 139 770 137

L772 134

L646 134

C519 134 519 134 515 137

C511 140 508 145 510 148

C512 153 511 152 577 153

L639 154

L640 155

C640 156 637 159 631 164

C618 174 619 174 603 174

C588 174 588 175 585 177

C583 180 582 181 582 185

C582 189 584 191 589 191

C590 191 593 191 593 192

L595 192

L595 193

C595 194 591 200 580 212

C576 217 576 217 505 217

C434 217 434 217 431 220

C427 222 426 224 426 228

C426 234 423 234 492 234

C557 234 557 234 557 238

C557 239 552 248 546 257

C539 267 529 283 522 293

C515 302 509 311 508 312

C507 313 494 313 453 313

C400 313 400 313 396 316

C394 319 393 321 393 323

C393 330 390 329 444 330

C477 330 493 330 494 331

C494 332 495 333 495 334

C495 335 486 351 476 370

C465 388 456 404 456 405

C456 405 455 407 453 409

C450 412 449 412 439 412

C429 413 429 413 426 416

C423 420 422 423 425 426

C426 428 428 429 433 429

L440 430

L440 432

C440 433 439 435 439 436

C438 437 436 440 435 442

C435 443 433 446 431 449

C430 451 428 454 428 455

C427 456 425 459 424 460

C422 463 422 463 400 463

C378 463 378 463 373 465

C369 468 368 470 368 475

C368 480 370 480 390 481

L410 482

L410 484

C410 486 409 488 408 490

C407 491 406 493 406 494

C405 495 404 498 402 501

C400 503 398 507 398 509

C397 510 395 513 394 514

C392 515 390 518 389 520

C387 524 385 526 383 530

C382 532 381 533 381 534

C381 534 379 538 376 542

C374 545 370 550 369 553

C367 555 364 559 362 561

C358 566 358 566 291 566

C224 567 224 567 221 569

C219 572 218 573 218 576

C218 583 214 583 281 583

C326 583 342 583 343 584

L344 585

L343 587

C338 597 291 644 269 661

C249 678 236 686 225 689

C218 690 214 690 209 688

C202 686 201 678 207 667

C208 664 209 661 209 661

C209 654 192 658 183 667

C182 668 180 672 178 675

C173 685 178 694 190 696

C193 697 196 698 197 698

C199 699 219 699 221 698

Z

M167 581

C170 579 174 574 174 572

C174 571 173 569 172 568

C169 566 169 566 101 566

C33 567 33 567 29 570

C25 575 25 579 29 581

C31 583 37 583 98 583

C161 583 165 583 167 581

Z

M196 529

C201 525 202 521 200 518

C198 516 197 515 179 515

C157 515 153 516 151 521

C149 525 149 526 151 530

C152 532 152 532 172 532

C193 532 193 532 196 529

Z

M608 487

C619 485 635 474 654 456

C664 445 679 428 685 421

C688 417 690 415 692 412

C694 409 704 396 707 392

C708 391 710 388 712 384

C715 381 717 378 718 377

C718 376 719 375 719 374

C719 374 720 372 721 371

C722 370 723 369 723 368

L723 367

L722 367

C721 367 700 394 693 403

C691 405 690 407 689 408

C688 409 684 414 680 419

C655 449 630 471 622 471

C621 471 619 470 617 469

C615 467 615 465 615 461

C615 455 618 444 622 437

C624 435 626 431 626 430

C628 427 630 424 635 416

C637 413 639 410 639 409

C639 409 643 402 650 392

C651 391 652 389 652 388

C653 387 654 384 656 382

C658 380 660 376 661 375

C662 371 666 365 673 355

C675 352 677 349 677 348

C678 347 679 344 681 342

C683 340 685 335 687 332

C689 329 692 324 694 322

C701 311 705 300 702 297

C700 296 699 296 693 298

C686 300 675 303 667 304

L662 306

L661 310

C658 321 655 329 643 349

C640 352 637 358 635 362

C633 365 630 370 628 372

C626 374 625 377 624 378

C624 379 622 382 620 386

C618 389 615 392 615 394

C614 395 613 397 611 400

C610 402 607 406 606 409

C604 411 600 418 597 423

C589 435 589 435 585 443

C579 455 578 459 578 469

C578 478 578 478 582 482

C584 485 587 487 588 487

C592 488 602 488 608 487

Z

M249 479

C253 478 255 475 256 471

C257 469 256 468 255 466

C252 463 252 463 221 463

C194 463 189 463 186 465

C179 468 177 475 181 479

C183 481 184 481 214 481

C240 481 246 481 249 479

Z

M315 425

C318 421 319 416 316 414

C315 412 309 412 263 412

C211 413 211 413 208 416

C204 420 204 427 209 428

C210 429 233 429 261 429

C311 429 311 429 315 425

Z

M213 379

C217 378 221 373 221 370

C221 368 220 366 218 365

C216 363 215 363 187 363

C158 363 158 363 155 366

C152 369 151 370 151 373

C151 377 152 378 156 379

C159 380 211 380 213 379

Z

M236 329

C243 327 246 320 242 315

C241 313 241 313 214 313

C188 313 188 313 185 316

C179 321 179 327 183 329

C186 330 231 330 236 329

Z

M707 259

C715 257 720 253 728 246

C744 231 750 208 740 203

C736 201 734 201 727 203

C719 206 713 210 704 218

C696 227 692 233 689 241

C688 246 688 247 690 252

C691 256 692 257 695 259

C700 261 700 261 707 259

Z

M287 234

C296 231 299 223 293 219

C291 217 289 217 272 217

C262 217 252 217 251 218

C246 220 243 224 243 228

L243 232

L246 234

C250 235 282 236 287 234

Z

M475 150

C481 146 483 141 479 136

C477 134 477 134 440 134

L404 134

L404 135

C404 135 403 136 402 137

C396 139 394 146 397 149

C399 152 399 152 435 152

C470 152 471 152 475 150

Z

"/>

<path fill="#8e9cc8" stroke="none" d="
M0 400

L0 0

L400 0

L800 0

L800 400

L800 800

L400 800

L0 800

L0 400

Z

M221 698

C222 697 226 696 231 696

C235 695 240 694 241 693

C242 693 245 692 247 692

C255 690 289 672 297 664

C298 664 303 660 308 656

C318 647 346 620 356 608

C372 589 384 574 392 561

C394 559 397 555 399 552

C406 542 435 499 435 498

C435 497 440 490 445 482

C446 480 447 479 447 478

C447 478 449 475 451 471

C457 462 463 452 468 443

C469 441 471 438 472 437

C473 434 484 416 489 408

C490 405 492 402 493 400

C495 398 500 388 506 378

C512 368 517 358 519 356

C520 354 522 351 522 350

C528 339 533 332 535 331

C536 330 548 330 566 330

C596 330 596 330 598 326

C604 318 606 315 605 314

C605 313 593 313 577 313

C561 313 549 313 548 312

L546 311

L547 308

C548 306 549 304 550 303

C550 302 552 300 552 299

C553 297 555 294 556 293

C557 291 560 286 562 283

C588 238 610 208 631 190

C651 172 676 161 707 157

C713 157 719 156 720 155

C721 155 730 154 739 154

C757 153 757 153 760 150

C761 149 764 146 765 144

C767 142 769 139 770 137

L772 134

L646 134

C519 134 519 134 515 137

C511 140 508 145 510 148

C512 153 511 152 577 153

L639 154

L640 155

C640 156 637 159 631 164

C618 174 619 174 603 174

C588 174 588 175 585 177

C583 180 582 181 582 185

C582 189 584 191 589 191

C590 191 593 191 593 192

L595 192

L595 193

C595 194 591 200 580 212

C576 217 576 217 505 217

C434 217 434 217 431 220

C427 222 426 224 426 228

C426 234 423 234 492 234

C557 234 557 234 557 238

C557 239 552 248 546 257

C539 267 529 283 522 293

C515 302 509 311 508 312

C507 313 494 313 453 313

C400 313 400 313 396 316

C394 319 393 321 393 323

C393 330 390 329 444 330

C477 330 493 330 494 331

C494 332 495 333 495 334

C495 335 486 351 476 370

C465 388 456 404 456 405

C456 405 455 407 453 409

C450 412 449 412 439 412

C429 413 429 413 426 416

C423 420 422 423 425 426

C426 428 428 429 433 429

L440 430

L440 432

C440 433 439 435 439 436

C438 437 436 440 435 442

C435 443 433 446 431 449

C430 451 428 454 428 455

C427 456 425 459 424 460

C422 463 422 463 400 463

C378 463 378 463 373 465

C369 468 368 470 368 475

C368 480 370 480 390 481

L410 482

L410 484

C410 486 409 488 408 490

C407 491 406 493 406 494

C405 495 404 498 402 501

C400 503 399 507 398 508

C397 509 395 512 394 514

C391 517 391 517 314 517

C271 517 236 517 234 518

C233 518 231 520 230 522

C228 526 228 526 230 528

C232 531 232 531 306 531

L380 532

L381 533

C381 534 379 538 376 542

C374 545 370 550 369 553

C367 555 364 559 362 561

C358 566 358 566 291 566

C224 567 224 567 221 569

C219 572 218 573 218 576

C218 583 214 583 281 583

C326 583 342 583 343 584

L344 585

L343 587

C338 597 291 644 269 661

C249 678 236 686 225 689

C218 690 214 690 209 688

C202 686 201 678 207 667

C208 664 209 661 209 661

C209 654 192 658 183 667

C182 668 180 672 178 675

C173 685 178 694 190 696

C193 697 196 698 197 698

C199 699 219 699 221 698

Z

M167 581

C170 579 174 574 174 572

C174 571 173 569 172 568

C169 566 169 566 101 566

C33 567 33 567 29 570

C25 575 25 579 29 581

C31 583 37 583 98 583

C161 583 165 583 167 581

Z

M196 529

C201 525 202 521 200 518

C198 516 197 515 179 515

C157 515 153 516 151 521

C149 525 149 526 151 530

C152 532 152 532 172 532

C193 532 193 532 196 529

Z

M608 487

C619 485 635 474 654 456

C664 445 679 428 685 421

C688 417 690 415 692 412

C694 409 704 396 707 392

C708 391 710 388 712 384

C715 381 717 378 718 377

C718 376 719 375 719 374

C719 374 720 372 721 371

C722 370 723 369 723 368

L723 367

L722 367

C721 367 700 394 693 403

C691 405 690 407 689 408

C688 409 684 414 680 419

C655 449 630 471 622 471

C621 471 619 470 617 469

C615 467 615 465 615 461

C615 455 618 444 622 437

C624 435 626 431 626 430

C628 427 630 424 635 416

C637 413 639 410 639 409

C639 409 643 402 650 392

C651 391 652 389 652 388

C653 387 654 384 656 382

C658 380 660 376 661 375

C662 371 666 365 673 355

C675 352 677 349 677 348

C678 347 679 344 681 342

C683 340 685 335 687 332

C689 329 692 324 694 322

C701 311 705 300 702 297

C700 296 699 296 693 298

C686 300 675 303 667 304

L662 306

L661 310

C658 321 655 329 643 349

C640 352 637 358 635 362

C633 365 630 370 628 372

C626 374 625 377 624 378

C624 379 622 382 620 386

C618 389 615 392 615 394

C614 395 613 397 611 400

C610 402 607 406 606 409

C604 411 600 418 597 423

C589 435 589 435 585 443

C579 455 578 459 578 469

C578 478 578 478 582 482

C584 485 587 487 588 487

C592 488 602 488 608 487

Z

M249 479

C253 478 255 475 256 471

C257 469 256 468 255 466

C252 463 252 463 221 463

C194 463 189 463 186 465

C179 468 177 475 181 479

C183 481 184 481 214 481

C240 481 246 481 249 479

Z

M334 476

C338 472 338 469 336 467

C334 465 333 465 314 465

C296 465 294 465 290 467

C286 469 285 471 285 474

C285 479 286 479 310 479

C332 479 332 478 334 476

Z

M315 425

C318 421 319 416 316 414

C315 412 309 412 263 412

C211 413 211 413 208 416

C204 420 204 427 209 428

C210 429 233 429 261 429

C311 429 311 429 315 425

Z

M389 424

C391 422 392 421 392 418

L392 414

L390 414

C390 413 381 413 372 413

C355 413 355 413 352 416

C348 419 347 422 349 425

C350 427 351 427 368 427

C386 427 386 427 389 424

Z

M213 379

C217 378 221 373 221 370

C221 368 220 366 218 365

C216 363 215 363 187 363

C158 363 158 363 155 366

C152 369 151 370 151 373

C151 377 152 378 156 379

C159 380 211 380 213 379

Z

M425 374

C426 372 426 366 424 364

C424 364 388 363 344 363

C265 363 264 363 262 365

C259 368 259 372 262 375

C264 377 265 377 343 377

C423 377 423 377 425 374

Z

M236 329

C243 327 246 320 242 315

C241 313 241 313 214 313

C188 313 188 313 185 316

C179 321 179 327 183 329

C186 330 231 330 236 329

Z

M331 327

C332 326 334 324 335 322

L337 319

L335 316

C333 314 333 314 302 314

C273 314 272 314 269 316

C268 317 266 319 266 319

C265 321 265 326 266 327

C267 328 329 328 331 327

Z

M341 279

C345 275 346 272 343 270

C342 268 339 268 320 268

C298 268 298 268 295 270

C294 272 293 274 293 277

L293 281

L294 281

C295 282 305 282 317 282

C339 282 339 282 341 279

Z

M495 280

C497 279 498 271 496 269

C496 268 482 268 433 268

C376 268 371 268 370 270

C368 272 369 278 371 280

C373 282 374 282 433 282

C487 282 494 282 495 280

Z

M707 259

C715 257 720 253 728 246

C744 231 750 208 740 203

C736 201 734 201 727 203

C719 206 713 210 704 218

C696 227 692 233 689 241

C688 246 688 247 690 252

C691 256 692 257 695 259

C700 261 700 261 707 259

Z

M287 234

C296 231 299 223 293 219

C291 217 289 217 272 217

C262 217 252 217 251 218

C246 220 243 224 243 228

L243 232

L246 234

C250 235 282 236 287 234

Z

M393 229

C397 224 397 223 393 220

C391 218 390 218 359 218

C327 218 327 218 323 221

C320 224 319 225 319 227

C319 229 319 231 320 231

C320 232 336 232 355 232

C391 232 391 232 393 229

Z

M556 187

C559 184 560 181 557 178

C556 176 556 176 446 176

C337 177 337 177 335 179

C334 183 335 187 338 189

C339 190 381 190 447 190

C554 190 554 190 556 187

Z

M475 150

C481 146 483 141 479 136

C477 134 477 134 440 134

L404 134

L404 135

C404 135 403 136 402 137

C396 139 394 146 397 149

C399 152 399 152 435 152

C470 152 471 152 475 150

Z

"/>

<path fill="#5fbceb" stroke="none" d="
M0 400

L0 0

L400 0

L800 0

L800 400

L800 800

L400 800

L0 800

L0 400

Z

M225 699

C227 698 232 697 235 696

C239 696 243 694 245 694

C247 693 249 692 250 692

C252 692 277 679 285 674

C288 672 293 669 295 667

C297 665 301 663 302 662

C309 657 332 636 349 617

C362 603 388 570 398 555

C399 554 402 550 404 548

C411 536 430 509 431 507

C432 505 433 503 435 500

C436 498 440 491 444 486

C448 480 451 474 452 472

C453 471 455 468 456 466

C457 464 459 461 460 459

C462 457 465 450 469 444

C473 438 476 431 478 429

C479 428 483 419 488 411

C493 403 497 395 499 393

C500 391 502 388 502 387

C503 385 505 382 506 380

C508 378 512 370 517 362

C531 337 534 333 536 333

C536 332 550 332 566 332

C595 332 595 332 598 329

C602 325 607 315 607 313

L606 312

L578 312

L549 312

L548 310

C548 310 548 308 549 307

C550 305 560 288 562 285

C563 284 564 282 565 280

C572 268 583 252 595 232

C606 217 623 197 635 188

C639 185 641 183 648 179

C653 176 670 167 674 167

C676 166 679 165 680 164

C681 164 685 163 688 162

C690 162 694 161 696 160

C698 160 703 159 707 159

C711 158 719 157 725 156

C731 156 740 155 746 154

C753 154 758 154 759 153

C760 152 772 138 773 136

L774 134

L773 134

C773 133 715 133 645 133

C517 133 517 133 514 136

C508 141 506 147 510 151

C512 154 512 154 575 154

L638 155

L639 156

L639 157

L631 163

C617 173 617 173 607 172

C591 172 583 175 581 181

C580 185 581 190 583 191

C584 192 586 192 589 192

L593 192

L593 193

C593 194 589 199 584 205

C575 216 575 216 504 216

C434 216 432 217 430 219

C427 221 424 226 424 229

C424 230 425 232 427 233

C430 236 430 236 492 236

C545 236 554 236 555 237

L556 239

L542 260

C535 271 524 287 519 295

C513 303 508 310 507 311

C506 312 493 312 452 312

C399 312 399 312 396 315

C390 320 390 324 393 329

C396 332 396 332 444 332

L493 333

L493 335

C493 336 492 338 491 340

C489 343 487 346 485 350

C484 352 480 359 476 367

C471 374 468 380 468 381

C468 381 467 382 467 383

C466 384 463 388 456 402

C455 403 454 406 452 407

C450 410 449 410 442 410

C433 410 428 411 425 416

C422 420 421 424 424 427

C425 429 427 429 432 430

C435 430 438 431 439 431

C439 432 438 435 435 440

C434 441 431 446 429 451

C426 456 423 460 423 461

C422 461 413 462 398 462

C376 463 376 463 372 465

C366 470 365 476 369 480

C371 482 372 483 390 483

L409 483

L409 484

C409 486 396 509 394 512

L392 514

L392 514

L393 514

L392 516

C391 517 381 517 314 517

C271 517 236 517 234 518

C233 518 231 520 230 522

C228 526 228 526 230 528

C232 531 232 531 306 531

C346 531 380 531 380 532

L381 532

L380 534

C379 536 377 539 374 543

C372 546 369 551 367 553

C365 555 362 559 361 561

C358 564 358 564 294 564

C248 564 229 564 226 565

C220 567 217 571 217 577

C217 584 213 584 282 584

L342 584

L342 585

C342 588 328 604 306 626

C260 672 228 693 211 688

C205 686 203 683 205 676

C206 673 207 670 208 668

C210 665 210 659 209 657

C206 654 204 655 197 657

C191 660 186 662 182 667

C177 674 176 676 176 683

C176 688 176 689 179 692

C184 698 193 700 208 700

C215 700 222 699 225 699

Z

M171 579

C176 574 176 570 172 567

C170 565 170 565 105 564

C58 564 38 564 35 565

C30 567 25 572 25 576

C25 584 22 584 99 584

C167 584 167 584 171 579

Z

M197 530

C201 527 203 522 202 518

C200 514 196 513 177 513

C159 513 159 513 155 515

C152 517 150 519 149 522

C147 526 147 526 149 530

C151 533 151 533 173 533

C194 533 194 533 197 530

Z

M607 489

C619 486 628 480 645 465

C662 450 682 427 703 400

C710 390 717 380 720 376

C720 375 721 373 722 372

C723 371 724 370 724 370

C724 369 725 368 726 366

C727 364 728 362 728 361

L727 360

L726 360

C726 360 721 366 716 373

C710 379 705 386 703 388

C701 390 699 393 699 394

C696 399 670 429 657 442

C641 459 627 470 622 470

C619 470 616 466 616 462

C616 458 620 445 622 440

C623 437 636 416 640 410

C641 408 644 404 645 401

C648 396 656 385 659 380

C660 378 661 377 661 377

C661 376 663 373 666 369

C670 361 675 354 682 343

C684 339 688 333 692 328

C703 311 706 302 703 297

L702 295

L697 295

C695 296 692 297 691 297

C690 298 686 299 682 300

C674 301 661 305 660 305

C660 306 659 310 658 314

C657 319 655 325 653 328

C651 331 649 335 648 337

C648 338 645 343 642 347

C639 351 637 355 636 356

C636 357 634 360 632 364

C627 371 626 373 623 378

C622 380 620 383 619 385

C618 386 616 389 615 391

C614 393 611 398 609 402

C606 405 603 410 602 412

C601 414 598 418 596 422

C590 431 582 445 581 449

C580 451 579 453 579 454

C577 456 576 467 577 473

C578 483 586 490 596 490

C598 490 603 489 607 489

Z

M250 481

C254 479 258 473 258 470

C258 468 257 466 256 465

C253 462 253 462 220 462

C187 462 187 462 184 465

C180 467 177 472 177 475

C177 477 180 481 182 482

C184 482 198 483 215 483

C244 483 245 483 250 481

Z

M334 476

C338 472 338 469 336 467

C334 465 333 465 314 465

C296 465 294 465 290 467

C286 469 285 471 285 474

C285 479 286 479 310 479

C332 479 332 478 334 476

Z

M315 426

C319 422 320 415 317 412

C315 411 313 410 266 410

C213 410 211 410 206 415

C203 420 203 428 208 429

C209 430 233 430 261 430

C312 430 312 430 315 426

Z

M389 424

C391 422 392 421 392 418

L392 414

L390 414

C390 413 381 413 372 413

C355 413 355 413 352 416

C348 419 347 422 349 425

C350 427 351 427 368 427

C386 427 386 427 389 424

Z

M214 381

C218 378 222 373 222 370

C222 368 221 366 220 364

C217 362 217 362 187 362

C157 362 157 362 153 365

C151 368 150 370 150 373

C150 376 151 378 152 379

C154 381 165 382 191 382

C207 382 212 382 214 381

Z

M425 374

C426 372 426 366 424 364

C424 364 388 363 344 363

C265 363 264 363 262 365

C259 368 259 372 262 375

C264 377 265 377 343 377

C423 377 423 377 425 374

Z

M236 330

C240 329 242 328 244 325

C247 321 247 319 244 315

C242 312 242 312 214 312

C186 313 186 313 183 315

C180 319 178 323 179 327

C181 331 185 332 209 332

C227 332 233 332 236 330

Z

M331 327

C332 326 334 324 335 322

L337 319

L335 316

C333 314 333 314 302 314

C273 314 272 314 269 316

C268 317 266 319 266 319

C265 321 265 326 266 327

C267 328 329 328 331 327

Z

M341 279

C345 275 346 272 343 270

C342 268 339 268 320 268

C298 268 298 268 295 270

C294 272 293 274 293 277

L293 281

L294 281

C295 282 305 282 317 282

C339 282 339 282 341 279

Z

M495 280

C497 279 498 271 496 269

C496 268 482 268 433 268

C376 268 371 268 370 270

C368 272 369 278 371 280

C373 282 374 282 433 282

C487 282 494 282 495 280

Z

M709 260

C723 255 736 242 743 228

C745 223 745 220 745 214

C745 206 745 206 742 203

C734 196 719 202 702 219

C690 232 685 244 688 253

C692 262 699 264 709 260

Z

M289 234

C297 230 300 222 294 218

C292 216 291 216 271 216

C250 216 249 217 246 219

C240 224 240 233 245 235

C246 235 256 236 267 236

C283 236 287 236 289 234

Z

M393 229

C397 224 397 223 393 220

C391 218 390 218 359 218

C327 218 327 218 323 221

C320 224 319 225 319 227

C319 229 319 231 320 231

C320 232 336 232 355 232

C391 232 391 232 393 229

Z

M556 187

C559 184 560 181 557 178

C556 176 556 176 446 176

C337 177 337 177 335 179

C334 183 335 187 338 189

C339 190 381 190 447 190

C554 190 554 190 556 187

Z

M476 151

C480 148 482 145 482 141

C482 139 480 135 479 134

C478 133 461 133 441 133

C404 133 404 133 401 136

C393 142 392 147 397 151

C400 154 400 154 436 154

C473 154 473 154 476 151

Z

"/>

<path fill="#b3cce7" stroke="none" d="
M0 400

L0 0

L400 0

L800 0

L800 400

L800 800

L400 800

L0 800

L0 400

Z

M225 699

C227 698 232 697 235 696

C239 696 243 694 245 694

C247 693 249 692 250 692

C252 692 277 679 285 674

C288 672 293 669 295 667

C297 665 301 663 302 662

C309 657 332 636 349 617

C362 603 388 570 398 555

C399 554 402 550 404 548

C411 536 430 509 431 507

C432 505 433 503 435 500

C436 498 440 491 444 486

C448 480 451 474 452 472

C453 471 455 468 456 466

C457 464 459 461 460 459

C462 457 465 450 469 444

C473 438 476 431 478 429

C479 428 483 419 488 411

C493 403 497 395 499 393

C500 391 502 388 502 387

C503 385 505 382 506 380

C508 378 512 370 517 362

C531 337 534 333 536 333

C536 332 550 332 566 332

C595 332 595 332 598 329

C602 325 607 315 607 313

L606 312

L578 312

L549 312

L548 310

C548 310 548 308 549 307

C550 305 560 288 562 285

C563 284 564 282 565 280

C572 268 583 252 595 232

C606 217 623 197 635 188

C639 185 641 183 648 179

C653 176 670 167 674 167

C676 166 679 165 680 164

C681 164 685 163 688 162

C690 162 694 161 696 160

C698 160 703 159 707 159

C711 158 719 157 725 156

C731 156 740 155 746 154

C753 154 758 154 759 153

C760 152 772 138 773 136

L774 134

L773 134

C773 133 715 133 645 133

C517 133 517 133 514 136

C508 141 506 147 510 151

C512 154 512 154 575 154

L638 155

L639 156

L639 157

L631 163

C617 173 617 173 607 172

C591 172 583 175 581 181

C580 185 581 190 583 191

C584 192 586 192 589 192

L593 192

L593 193

C593 194 589 199 584 205

C575 216 575 216 504 216

C434 216 432 217 430 219

C427 221 424 226 424 229

C424 230 425 232 427 233

C430 236 430 236 492 236

C545 236 554 236 555 237

L556 239

L542 260

C535 271 524 287 519 295

C513 303 508 310 507 311

C506 312 493 312 452 312

C399 312 399 312 396 315

C390 320 390 324 393 329

C396 332 396 332 444 332

L493 333

L493 335

C493 336 492 338 491 340

C489 343 487 346 485 350

C484 352 480 359 476 367

C471 374 468 380 468 381

C468 381 467 382 467 383

C466 384 463 388 456 402

C455 403 454 406 452 407

C450 410 449 410 442 410

C433 410 428 411 425 416

C422 420 421 424 424 427

C425 429 427 429 432 430

C435 430 438 431 439 431

C439 432 438 435 435 440

C434 441 431 446 429 451

C426 456 423 460 423 461

C422 461 413 462 398 462

C376 463 376 463 372 465

C366 470 365 476 369 480

C371 482 372 483 390 483

L409 483

L409 484

C409 486 396 509 394 512

C392 514 392 514 315 514

C241 514 238 514 234 516

C230 518 228 521 227 525

C226 526 227 528 229 530

C232 533 232 533 305 533

L378 533

L379 534

C379 535 377 539 374 542

C372 546 368 551 367 553

C365 556 362 559 361 561

C358 564 358 564 294 564

C248 564 229 564 226 565

C220 567 217 571 217 577

C217 584 213 584 282 584

L342 584

L342 585

C342 588 328 604 306 626

C260 672 228 693 211 688

C205 686 203 683 205 676

C206 673 207 670 208 668

C210 665 210 659 209 657

C206 654 204 655 197 657

C191 660 186 662 182 667

C177 674 176 676 176 683

C176 688 176 689 179 692

C184 698 193 700 208 700

C215 700 222 699 225 699

Z

M171 579

C176 574 176 570 172 567

C170 565 170 565 105 564

C58 564 38 564 35 565

C30 567 25 572 25 576

C25 584 22 584 99 584

C167 584 167 584 171 579

Z

M197 530

C201 527 203 522 202 518

C200 514 196 513 177 513

C159 513 159 513 155 515

C152 517 150 519 149 522

C147 526 147 526 149 530

C151 533 151 533 173 533

C194 533 194 533 197 530

Z

M607 489

C619 486 628 480 645 465

C662 450 682 427 703 400

C710 390 717 380 720 376

C720 375 721 373 722 372

C723 371 724 370 724 370

C724 369 725 368 726 366

C727 364 728 362 728 361

L727 360

L726 360

C726 360 721 366 716 373

C710 379 705 386 703 388

C701 390 699 393 699 394

C696 399 670 429 657 442

C641 459 627 470 622 470

C619 470 616 466 616 462

C616 458 620 445 622 440

C623 437 636 416 640 410

C641 408 644 404 645 401

C648 396 656 385 659 380

C660 378 661 377 661 377

C661 376 663 373 666 369

C670 361 675 354 682 343

C684 339 688 333 692 328

C703 311 706 302 703 297

L702 295

L697 295

C695 296 692 297 691 297

C690 298 686 299 682 300

C674 301 661 305 660 305

C660 306 659 310 658 314

C657 319 655 325 653 328

C651 331 649 335 648 337

C648 338 645 343 642 347

C639 351 637 355 636 356

C636 357 634 360 632 364

C627 371 626 373 623 378

C622 380 620 383 619 385

C618 386 616 389 615 391

C614 393 611 398 609 402

C606 405 603 410 602 412

C601 414 598 418 596 422

C590 431 582 445 581 449

C580 451 579 453 579 454

C577 456 576 467 577 473

C578 483 586 490 596 490

C598 490 603 489 607 489

Z

M250 481

C254 479 258 473 258 470

C258 468 257 466 256 465

C253 462 253 462 220 462

C187 462 187 462 184 465

C180 467 177 472 177 475

C177 477 180 481 182 482

C184 482 198 483 215 483

C244 483 245 483 250 481

Z

M332 480

C334 479 337 477 337 476

C340 473 339 467 337 465

C335 463 334 463 313 463

C293 463 291 463 288 465

C282 469 281 476 286 480

C288 482 290 482 308 482

C326 482 328 482 332 480

Z

M315 426

C319 422 320 415 317 412

C315 411 313 410 266 410

C213 410 211 410 206 415

C203 420 203 428 208 429

C209 430 233 430 261 430

C312 430 312 430 315 426

Z

M390 426

C393 423 394 421 394 418

C394 412 392 411 373 411

C356 411 352 412 349 416

C346 419 346 427 349 428

C350 429 358 429 369 429

C387 429 387 429 390 426

Z

M214 381

C218 378 222 373 222 370

C222 368 221 366 220 364

C217 362 217 362 187 362

C157 362 157 362 153 365

C151 368 150 370 150 373

C150 376 151 378 152 379

C154 381 165 382 191 382

C207 382 212 382 214 381

Z

M423 378

C425 378 428 373 428 370

C428 366 426 363 423 362

C419 361 267 361 263 362

C260 363 258 366 258 370

C258 373 261 378 262 378

C264 379 422 379 423 378

Z

M236 330

C240 329 242 328 244 325

C247 321 247 319 244 315

C242 312 242 312 214 312

C186 313 186 313 183 315

C180 319 178 323 179 327

C181 331 185 332 209 332

C227 332 233 332 236 330

Z

M329 330

C337 328 341 318 335 314

C333 312 332 312 301 312

C270 313 270 313 266 316

C261 322 262 328 267 330

C271 331 323 331 329 330

Z

M338 284

C342 282 347 277 347 274

C347 272 346 270 345 269

C343 267 343 266 322 266

C311 266 300 266 298 266

C296 267 294 268 292 271

C290 276 289 278 292 281

C294 284 292 283 330 285

C333 285 337 284 338 284

Z

M489 283

C496 283 497 282 498 279

C501 275 500 271 497 268

C495 266 493 266 434 266

C366 266 369 266 368 272

C367 274 367 277 368 278

C369 282 370 283 377 283

C382 284 482 284 489 283

Z

M709 260

C723 255 736 242 743 228

C745 223 745 220 745 214

C745 206 745 206 742 203

C734 196 719 202 702 219

C690 232 685 244 688 253

C692 262 699 264 709 260

Z

M289 234

C297 230 300 222 294 218

C292 216 291 216 271 216

C250 216 249 217 246 219

C240 224 240 233 245 235

C246 235 256 236 267 236

C283 236 287 236 289 234

Z

M389 234

C394 232 397 228 397 224

C397 222 396 220 395 219

C394 217 391 217 360 217

C325 217 325 217 322 220

C316 223 315 232 320 234

C324 235 385 235 389 234

Z

M558 188

C563 183 561 176 555 174

C550 173 343 172 338 174

C332 176 330 183 334 188

C336 191 336 191 446 191

C556 191 556 191 558 188

Z

M476 151

C480 148 482 145 482 141

C482 139 480 135 479 134

C478 133 461 133 441 133

C404 133 404 133 401 136

C393 142 392 147 397 151

C400 154 400 154 436 154

C473 154 473 154 476 151

Z

"/>

<path fill="#dce5f2" stroke="none" d="
M0 400

L0 0

L400 0

L800 0

L800 400

L800 800

L400 800

L0 800

L0 400

Z

M230 699

C231 698 235 697 238 697

C242 696 249 693 258 690

C260 689 262 688 262 688

C263 688 287 674 292 671

C312 656 338 632 354 613

C359 607 383 578 387 572

C388 570 390 568 391 567

C395 561 411 539 415 533

C416 531 419 526 422 521

C426 516 429 511 431 509

C432 507 434 503 437 500

C439 496 442 491 444 488

C446 485 448 481 449 480

C450 478 452 474 455 471

C460 461 462 458 467 450

C469 445 472 440 474 438

C475 436 477 433 478 431

C479 430 482 423 486 417

C490 411 493 404 494 403

C495 401 497 398 498 396

C500 394 504 386 509 378

C514 369 518 361 520 359

C521 357 523 354 524 353

C524 351 526 348 528 346

C529 343 531 340 531 338

C532 337 534 335 535 334

C536 333 548 333 566 333

C582 333 596 333 597 332

C598 331 605 320 607 317

C608 315 608 314 607 313

C606 311 602 311 578 311

L550 311

L549 310

C549 309 551 304 554 299

C557 295 562 288 564 284

C566 281 568 276 570 274

C571 272 573 269 574 267

C575 265 577 263 577 262

C578 261 581 255 585 250

C595 233 614 209 624 200

C630 194 641 184 648 180

C656 175 673 167 675 167

C676 167 679 166 681 165

C684 164 687 163 689 163

C690 163 694 162 697 161

C699 161 708 159 717 159

C725 158 735 157 740 156

C745 155 751 155 753 155

C758 155 759 155 763 150

C769 143 775 135 774 134

C774 133 716 133 645 133

C516 133 516 133 513 135

C510 138 506 144 506 146

C506 147 507 149 509 151

C512 155 512 155 574 155

L637 155

L637 156

C636 157 622 168 619 170

C618 171 612 171 605 171

C594 171 591 171 588 173

C584 175 581 178 580 182

C578 188 582 193 589 193

L592 193

L592 194

C592 194 585 203 579 210

C574 215 574 215 504 215

C435 215 434 215 430 217

C426 219 423 225 423 229

C423 231 424 233 426 234

C429 237 429 237 492 237

C528 237 554 237 554 238

C555 238 553 241 551 245

C549 248 547 251 547 252

C546 253 542 260 537 267

C532 274 523 286 518 294

C512 303 507 310 507 310

C506 311 481 311 452 311

C399 311 399 311 395 315

C389 321 388 327 394 331

C397 333 400 333 445 333

L492 333

L492 335

C492 337 492 338 491 339

C490 339 489 341 488 342

C488 344 486 347 485 349

C478 360 455 401 455 402

C455 402 454 404 452 406

C449 409 449 409 441 409

C432 409 428 410 424 415

C421 418 421 420 421 425

C422 429 426 431 433 431

L437 431

L437 432

C437 433 436 436 435 438

C431 445 428 449 426 454

C422 461 423 461 397 461

C375 461 374 462 371 464

C367 467 365 473 365 476

C366 477 367 480 368 481

C370 483 370 484 389 484

L408 484

L408 486

C408 486 408 487 407 488

C406 488 405 490 404 491

C404 493 402 496 401 499

C399 501 397 504 397 506

C393 513 400 512 315 512

C239 512 239 512 234 514

C229 517 226 521 225 525

C225 527 225 528 228 531

C231 534 231 534 304 534

C344 534 377 534 377 535

C378 536 367 552 361 560

C358 563 358 563 293 563

C231 563 228 563 224 565

C222 566 220 568 219 569

C214 573 215 582 220 584

C221 585 246 585 282 585

L341 585

L341 586

C341 589 304 628 283 647

C272 657 247 676 241 679

C240 679 238 680 237 681

C231 685 224 687 218 687

C214 687 211 687 209 686

C205 685 204 676 208 670

C213 662 211 654 205 654

C196 654 183 663 178 671

C176 675 175 677 175 683

C175 688 175 690 178 692

C179 694 182 696 185 698

C189 700 191 700 208 700

C219 700 228 700 230 699

Z

M167 584

C172 582 176 576 176 572

C176 569 175 568 172 566

C169 563 169 563 103 563

C31 563 34 563 28 569

C25 571 25 572 25 577

C25 585 20 585 97 585

C152 585 165 585 167 584

Z

M197 531

C203 527 205 520 200 515

C197 512 197 512 177 512

C158 512 158 512 154 515

C150 518 146 523 146 526

C146 527 147 529 149 531

C151 534 151 534 172 534

C193 534 193 534 197 531

Z

M609 489

C617 487 621 485 630 479

C642 470 659 454 674 438

C677 434 680 430 681 429

C683 427 698 408 700 405

C701 404 704 400 706 397

C715 385 720 377 726 369

C728 365 730 360 729 359

C728 357 725 358 722 363

C720 365 718 368 717 369

C715 371 714 373 712 375

C706 383 689 405 687 406

C686 408 683 411 681 415

C665 434 646 454 636 461

C629 466 624 469 622 469

C620 469 617 465 617 462

C617 458 620 446 623 441

C626 434 627 433 633 424

C635 420 637 417 637 417

C637 416 642 409 647 401

C648 399 649 398 649 398

C649 397 651 394 654 390

C656 385 660 380 662 376

C664 373 667 368 670 364

C672 361 674 358 674 357

C674 357 675 356 676 354

C680 349 687 337 687 336

C687 336 688 335 689 333

C700 316 704 310 705 303

C705 298 705 297 703 296

C701 294 700 294 696 295

C690 296 678 299 673 301

C671 301 667 303 665 303

C659 304 657 307 657 314

C656 321 653 327 645 340

C643 343 640 348 640 350

C639 351 638 353 637 354

C636 354 635 355 635 356

C634 358 633 361 631 363

C629 365 627 369 627 370

C626 371 624 375 622 378

C620 381 618 384 618 385

C618 385 617 387 616 388

C615 388 614 390 614 390

C614 391 612 394 610 397

C608 400 606 403 606 404

C606 404 604 407 602 411

C599 415 597 418 597 419

C597 419 596 420 595 421

C594 422 591 428 584 439

C575 456 573 475 580 483

C586 491 596 493 609 489

Z

M252 481

C259 475 261 469 257 464

C254 462 254 462 220 462

C185 462 185 462 182 464

C176 469 174 476 179 480

C180 482 182 483 183 483

C184 484 199 484 217 484

C248 484 249 483 252 481

Z

M334 480

C338 478 339 476 340 473

C341 469 340 464 336 463

C336 462 325 462 313 462

C291 462 291 462 287 465

C284 468 281 472 281 475

C281 476 282 478 284 480

C287 483 287 483 308 483

C330 483 330 483 334 480

Z

M315 428

C319 423 321 419 320 415

C318 409 318 409 264 409

C211 409 211 409 206 414

C201 419 203 429 208 430

C209 431 233 431 261 431

C312 431 312 431 315 428

Z

M390 427

C396 423 397 418 395 414

C393 410 388 409 373 409

C358 409 353 410 349 414

C345 417 345 427 348 429

C349 430 358 430 368 430

C386 430 387 430 390 427

Z

M216 380

C223 376 225 369 221 364

C219 362 219 362 188 361

C157 361 157 361 154 364

C147 370 147 378 153 381

C156 383 161 383 185 383

C213 383 213 383 216 380

Z

M424 379

C426 379 430 373 430 370

C430 369 429 367 428 365

C425 359 427 359 343 359

C257 359 262 359 258 366

C256 370 256 370 257 374

C259 376 260 379 261 379

C264 380 420 380 424 379

Z

M238 331

C243 329 247 323 247 319

C247 317 246 315 244 314

C241 311 241 311 214 311

C186 312 186 312 183 315

C177 320 177 328 182 331

C185 333 187 333 210 333

C232 333 234 333 238 331

Z

M331 330

C336 328 339 324 339 319

C339 316 338 315 337 313

C335 312 333 311 305 311

C289 311 274 311 272 311

C271 312 268 313 266 315

C263 317 263 319 262 323

C262 327 262 328 265 330

C267 332 268 332 298 332

C324 332 329 332 331 330

Z

M338 285

C345 282 348 279 348 273

C348 266 347 266 323 265

C305 264 301 264 298 265

C290 268 286 277 290 282

C293 284 295 285 314 286

C323 286 331 287 332 287

C333 287 336 286 338 285

Z

M494 284

C497 284 502 278 502 275

C502 271 498 266 494 265

C492 264 468 264 433 264

C368 264 369 264 367 271

C365 274 365 275 366 277

C368 282 370 284 372 284

C376 285 490 285 494 284

Z

M712 260

C734 249 751 224 746 208

C744 200 734 197 726 201

C724 202 722 203 721 203

C718 203 703 216 696 225

C684 240 683 254 693 261

C697 264 706 263 712 260

Z

M291 235

C293 233 296 231 296 230

C299 227 298 221 296 218

C294 216 294 216 271 216

C248 216 248 216 245 219

C240 224 239 229 243 234

C245 237 245 237 266 237

C287 237 287 237 291 235

Z

M390 235

C392 234 395 232 396 230

C399 227 399 221 396 218

C394 216 394 216 360 216

C325 216 325 216 322 218

C315 222 314 230 319 234

C322 237 322 237 354 237

C384 237 386 237 390 235

Z

M553 192

C560 191 563 186 561 179

C561 177 559 175 557 174

C554 172 552 171 448 171

C350 171 343 171 338 173

C333 175 329 180 330 184

C331 188 335 191 338 192

C342 193 548 193 553 192

Z

M477 152

C483 147 484 142 481 136

C480 133 480 133 441 133

C401 133 401 133 397 138

C392 144 392 147 396 151

C397 153 399 154 401 154

C402 155 419 155 438 155

C474 155 474 155 477 152

Z

"/>

<path fill="#ffffff" stroke="none" d="
M0 400

L0 0

L400 0

L800 0

L800 400

L800 800

L400 800

L0 800

L0 400

Z

M231 700

C233 699 237 698 240 698

C243 697 247 696 249 695

C250 694 252 693 253 693

C254 693 257 692 259 691

C261 690 264 689 265 688

C266 687 269 686 272 685

C274 683 276 682 277 681

C279 681 291 672 299 667

C311 659 332 639 348 621

C351 618 356 613 357 611

C362 607 385 578 388 573

C390 570 393 566 395 564

C396 562 398 559 399 558

C399 557 401 554 403 552

C405 550 407 547 408 546

C408 545 413 538 418 530

C423 522 430 511 434 506

C437 501 442 494 444 490

C447 486 449 482 449 481

C449 481 450 480 451 479

C451 478 453 476 454 475

C456 470 458 467 462 460

C464 457 466 454 467 453

C467 451 469 449 470 447

C471 445 472 443 472 443

C472 443 473 441 474 440

C475 438 477 435 478 433

C480 430 482 427 482 426

C483 424 485 421 487 419

C488 416 490 413 490 412

C492 409 494 405 497 401

C498 400 499 397 499 396

C500 395 502 392 503 389

C505 387 507 383 508 382

C509 381 510 378 512 376

C513 373 515 370 516 369

C516 367 518 364 519 362

C524 354 529 345 529 345

C529 343 535 335 537 335

C537 334 551 334 567 334

C601 334 597 335 604 324

C608 318 609 316 609 314

L609 311

L606 310

C604 310 591 309 577 309

C563 309 551 309 551 309

L550 309

L553 304

C554 302 556 298 558 296

C559 294 561 291 562 289

C563 287 565 284 566 283

C567 281 569 278 570 276

C571 274 574 269 576 266

C579 262 582 257 583 255

C586 251 587 248 594 237

C606 220 624 200 636 190

C643 184 655 176 657 176

C658 176 659 175 661 174

C662 173 664 172 665 172

C667 172 669 171 671 170

C672 169 675 168 676 168

C677 168 680 167 682 166

C684 165 687 164 689 164

C691 164 696 163 700 162

C704 161 712 160 718 160

C729 159 752 156 758 155

C760 155 763 152 768 146

C773 141 776 136 776 135

L776 133

L774 133

C774 132 715 132 644 132

C516 132 516 132 513 134

C509 137 505 142 505 146

C505 147 506 150 508 152

C511 156 511 156 573 156

L634 156

L634 156

C634 157 631 160 626 163

C619 170 619 170 605 170

C587 170 582 173 579 182

C578 185 578 186 579 189

C581 192 581 193 585 194

L589 194

L589 196

C589 196 585 201 581 205

C574 214 574 214 503 214

C431 215 431 215 429 217

C427 218 425 221 423 223

C420 228 421 231 425 235

C428 239 428 239 491 239

L553 240

L550 245

C548 247 544 253 541 258

C538 262 535 267 534 268

C532 271 516 296 513 299

C512 301 510 303 509 305

C508 307 506 309 505 309

C503 310 479 310 451 310

C423 310 399 310 398 311

C394 313 388 320 388 324

C388 326 389 328 392 330

C395 334 395 334 443 334

L491 334

L491 335

C491 336 491 337 490 338

C489 338 488 340 487 341

C486 345 483 349 480 356

C478 358 476 361 476 363

C475 364 473 367 471 370

C470 372 468 375 467 378

C466 380 464 383 463 386

C461 388 460 391 459 392

C458 393 457 395 457 396

C456 397 455 399 455 400

C454 401 453 404 452 405

C450 407 449 407 442 407

C433 407 430 408 424 413

C420 417 419 421 421 426

C422 430 426 432 432 432

L435 432

L435 435

C434 436 433 439 432 440

C431 441 430 444 430 445

C429 446 428 449 427 450

C426 451 425 453 425 453

C425 454 424 455 423 457

C421 460 421 460 400 460

C388 460 377 460 375 461

C371 462 367 465 365 470

C363 475 363 477 367 482

C369 485 369 485 388 485

L407 485

L405 489

C403 491 401 495 399 498

C397 501 396 504 396 505

C396 505 395 507 394 508

C391 511 391 511 313 511

C236 512 236 512 232 514

C227 518 225 521 225 526

C225 529 225 531 227 533

C230 535 230 535 303 535

L375 535

L375 537

C375 538 374 539 374 540

C373 541 371 544 368 548

C366 551 363 555 361 557

C358 561 358 561 293 561

C229 561 228 561 225 563

C219 566 216 569 215 573

C214 577 214 578 215 581

C216 583 218 584 219 585

C221 585 248 586 279 586

C311 587 338 587 338 587

L338 588

L331 597

C321 608 289 640 277 651

C272 655 267 659 266 660

C262 663 261 665 256 668

C254 669 250 672 248 673

C245 675 241 678 238 679

C234 681 230 683 228 684

C223 686 211 687 208 685

C206 683 206 676 208 671

C209 670 211 666 211 664

C213 660 213 659 211 657

C210 654 209 653 205 653

C202 653 199 653 198 654

C196 655 194 656 192 657

C188 658 181 664 177 670

C175 673 174 675 174 682

C174 689 174 690 177 693

C179 696 182 698 188 700

C191 701 226 701 231 700

Z

M168 585

C170 584 172 582 174 580

C176 577 177 575 177 572

C177 568 177 567 173 564

C170 562 170 562 103 562

C36 562 36 562 31 564

C26 568 24 571 24 576

C24 582 25 584 28 585

C32 586 165 586 168 585

Z

M198 532

C202 528 205 523 205 520

C205 519 203 517 202 515

C198 511 198 511 178 511

C157 511 157 511 153 514

C145 519 143 527 148 532

C151 535 151 535 173 535

C195 535 195 535 198 532

Z

M607 491

C608 491 611 490 614 489

C617 488 619 487 620 486

C621 486 622 485 622 485

C623 485 630 481 633 478

C634 478 637 475 641 472

C644 469 650 464 654 460

C660 454 665 449 685 426

C688 423 691 419 691 418

C692 417 696 412 700 407

C704 402 709 395 711 392

C713 389 715 387 715 387

C715 387 716 386 717 384

C720 379 721 377 723 375

C725 373 729 366 729 365

C729 365 730 364 731 363

C732 362 733 356 731 355

C729 354 724 358 721 362

C720 363 715 370 710 376

C705 382 700 389 699 390

C697 392 692 399 691 400

C691 400 689 403 686 406

C684 409 681 412 680 414

C679 415 675 419 672 423

C654 444 633 464 627 465

C626 466 624 467 623 467

L622 468

L621 467

C619 465 618 463 620 454

C621 449 622 445 623 444

C623 443 624 441 625 440

C625 439 626 436 627 435

C628 434 629 432 629 432

C629 431 630 429 631 429

C632 428 633 426 633 426

C633 425 635 422 637 419

C639 416 641 413 641 412

C641 412 647 403 652 395

C653 393 654 392 654 391

C654 391 655 389 656 389

C657 388 658 386 658 386

C658 385 660 382 663 378

C665 374 667 371 667 371

C667 370 669 367 671 364

C673 361 675 358 675 357

C675 357 676 355 677 355

C678 354 679 352 679 352

C679 351 687 338 691 334

C691 332 692 331 692 331

C692 330 693 328 695 325

C706 309 709 298 704 294

C701 293 691 294 685 296

C683 297 680 298 678 298

C677 298 674 299 672 300

C669 300 665 302 663 302

C660 303 657 304 657 305

C657 306 656 310 656 314

C655 318 654 322 654 323

C653 324 651 326 651 328

C649 332 649 332 642 342

C640 346 638 349 638 349

C638 350 636 353 634 356

C632 359 630 362 630 362

C630 363 629 364 628 366

C625 370 619 380 617 383

C614 388 611 393 609 397

C608 398 606 401 605 403

C604 405 602 408 601 410

C600 411 598 414 597 415

C597 417 594 421 592 423

C590 426 588 429 588 430

C587 432 586 434 584 437

C583 439 582 442 581 443

C580 444 579 447 578 450

C575 456 574 468 575 475

C577 483 579 487 587 490

C592 493 593 493 599 493

C603 492 607 492 607 491

Z

M253 482

C261 476 263 468 258 463

C255 461 255 461 220 461

C181 461 183 460 177 468

C174 472 174 477 177 481

C178 482 180 484 182 484

C183 485 198 485 217 485

C249 485 250 484 253 482

Z

M335 481

C339 479 342 474 342 470

C342 468 341 466 340 464

C338 461 338 461 314 461

C289 461 289 461 285 465

C278 472 278 476 283 481

C285 484 285 484 308 484

C331 484 331 484 335 481

Z

M314 430

C318 428 322 421 322 418

C322 415 319 410 316 409

C314 407 306 407 264 407

C215 407 215 407 210 410

C203 414 200 421 202 426

C205 432 205 432 261 432

C308 432 312 431 314 430

Z

M388 430

C392 428 398 421 398 417

C398 416 397 413 395 411

C391 408 391 408 374 408

C357 408 356 408 352 410

C348 412 347 414 345 418

C343 423 343 423 345 426

C348 431 351 432 370 432

C381 432 386 431 388 430

Z

M217 381

C223 378 224 373 224 368

C223 361 223 361 192 360

C161 359 156 359 152 364

C146 370 146 376 150 381

C154 384 154 384 183 384

C213 384 213 384 217 381

Z

M422 381

C426 380 427 379 429 376

C433 370 433 370 429 365

C424 358 430 358 343 358

C258 358 261 358 257 364

C256 365 255 368 255 370

C255 374 259 380 263 381

C268 382 417 382 422 381

Z

M239 332

C241 330 244 328 245 326

C250 321 248 312 242 310

C240 310 227 310 212 310

C185 311 185 311 182 314

C176 321 176 329 181 332

C184 334 187 334 210 334

C236 334 236 334 239 332

Z

M331 332

C337 329 340 325 340 319

C340 316 339 314 338 312

C336 311 334 311 303 311

C269 311 269 311 266 313

C263 316 260 321 260 324

C260 327 263 332 266 333

C268 333 282 334 298 334

C325 334 327 334 331 332

Z

M340 286

C346 282 349 278 348 273

C348 265 348 265 324 263

C303 262 302 262 298 264

C290 267 286 274 288 280

C290 286 298 288 324 288

C335 288 337 288 340 286

Z

M500 282

C505 275 503 268 495 264

C491 262 489 262 434 262

C380 262 376 262 372 264

C368 266 364 271 364 274

C364 277 367 284 370 285

C372 286 483 287 491 286

C496 285 497 285 500 282

Z

M714 261

C716 259 719 257 720 257

C721 256 722 255 722 255

C725 255 742 235 742 232

C742 232 743 231 743 230

C745 229 749 217 749 213

C749 210 745 202 742 200

C736 195 721 199 708 211

C697 220 691 227 688 235

C683 246 685 257 693 262

C697 265 707 264 714 261

Z

M287 238

C289 237 292 235 295 234

C298 230 299 230 299 224

C299 214 299 215 272 215

C248 215 248 215 245 217

C241 220 238 226 238 229

C238 232 242 237 246 238

C250 239 283 239 287 238

Z

M392 235

C395 233 398 231 398 229

C399 226 399 220 397 217

C396 215 396 215 360 215

C323 215 323 215 320 218

C317 221 314 225 314 229

C314 230 315 233 317 235

C321 238 321 238 354 238

C388 238 388 238 392 235

Z

M555 193

C560 192 562 190 563 185

C564 180 562 175 557 172

C553 170 553 170 446 170

C340 170 340 170 336 172

C328 176 327 184 332 189

C334 191 336 193 338 193

C344 194 552 194 555 193

Z

M479 152

C482 149 485 144 485 141

C485 139 482 134 481 133

C480 132 462 132 440 132

C401 132 401 132 396 137

C393 141 392 142 392 145

C392 148 393 150 395 152

C397 155 397 155 436 155

C476 155 476 155 479 152

Z

"/>

</svg>

